# xmcd
#
# Track frame offsets: 
#        150
#        17250
#        48975
#        68475
#        88275
#        102000
#        114975
#        130725
#        149475
#        159975
#        177975
#        201450
#        225975
#        248475
#        268725
#
# Disc length: 3663 seconds
#
# Revision: 0
# Processed by: cddbd v1.5PL3 Copyright (c) Steve Scherf et al.
# Submitted via: ExactAudioCopy v0.95a3
#
DISCID=bf0e4d0f
DTITLE=Various Artist - INOUE MADNESS 10
DYEAR=2003
DGENRE=GABBER
TTITLE0=SOUNDMURDERER&SK-1 - Bad Sound
TTITLE1=SOUNDMURDERER&SK-1 - Soundboy
TTITLE2=SOUNDMURDERER&SK-1 - Whomanseelwar
TTITLE3=FFF - Murder
TTITLE4=Epsilon - Swimmingliver Drunk
TTITLE5=Istari Lasterfahrer - pR0UD oF wHAT?
TTITLE6=Rotator - Tyrasy N Ready
TTITLE7=Lfo Demon - Classwar Dynamite
TTITLE8=Rude-Ass Tinker - One (Remix)
TTITLE9=fast Forward - Sexless
TTITLE10=The DJ Producer - Underground Funk
TTITLE11=Death Syndicate - Adrenosceptor
TTITLE12=The Teknoist - Key Mcalls Late Burpday Present
TTITLE13=DJ Fistfuck - Emergency (Remix)
TTITLE14=? - Coming Out of Nothing
EXTD=
EXTT0=
EXTT1=
EXTT2=
EXTT3=
EXTT4=
EXTT5=
EXTT6=
EXTT7=
EXTT8=
EXTT9=
EXTT10=
EXTT11=
EXTT12=
EXTT13=
EXTT14=
PLAYORDER=
